<svg width="167" height="30" viewBox="0 0 167 30" fill="none" xmlns="http://www.w3.org/2000/svg">
<path d="M2.57007 4.04938V1.43937H20.7801V4.04938H14.7501L20.8401 9.68937L18.7701 11.9994L11.6901 5.57938C10.8901 6.47938 10.0601 7.29938 9.20007 8.03938C8.36007 8.77938 7.58007 9.42938 6.86007 9.98938C6.12007 10.5494 5.48007 11.0094 4.94007 11.3694C4.42007 11.7094 4.09007 11.9294 3.95007 12.0294L2.39007 9.41937C2.87007 9.13937 3.42007 8.77938 4.04007 8.33938C4.68007 7.87938 5.32007 7.37938 5.96007 6.83938C6.58007 6.31938 7.17007 5.76937 7.73007 5.18937C8.11007 4.80937 8.43007 4.42938 8.69007 4.04938H2.57007ZM0.320068 12.6294H22.8801V15.4194H13.3401V17.2794C13.6601 17.3394 13.9901 17.4094 14.3301 17.4894C15.2501 17.7294 16.1001 18.0994 16.8801 18.5994C17.6401 19.0994 18.2601 19.7494 18.7401 20.5494C19.2401 21.3294 19.5101 22.2594 19.5501 23.3394C19.5501 24.3394 19.3201 25.2094 18.8601 25.9494C18.4001 26.6894 17.8001 27.2994 17.0601 27.7794C16.3001 28.2594 15.4501 28.6194 14.5101 28.8594C13.5701 29.0994 12.6201 29.2194 11.6601 29.2194C10.7201 29.2194 9.79007 29.1094 8.87007 28.8894C7.95007 28.6694 7.12007 28.3194 6.38007 27.8394C5.64007 27.3594 5.03007 26.7494 4.55007 26.0094C4.07007 25.2694 3.82007 24.3694 3.80007 23.3094C3.82007 22.3294 4.06007 21.4594 4.52007 20.6994C4.98007 19.9194 5.58007 19.2694 6.32007 18.7494C7.06007 18.2294 7.89007 17.8294 8.81007 17.5494C9.15007 17.4494 9.49007 17.3594 9.83007 17.2794V15.4194H0.320068V12.6294ZM16.0701 23.3394C16.0701 22.7794 15.9401 22.2894 15.6801 21.8694C15.4201 21.4294 15.0801 21.0594 14.6601 20.7594C14.2401 20.4794 13.7701 20.2694 13.2501 20.1294C12.7301 19.9694 12.2001 19.8894 11.6601 19.8894C11.1801 19.8894 10.6701 19.9594 10.1301 20.0994C9.61007 20.2394 9.13007 20.4494 8.69007 20.7294C8.25007 21.0294 7.88007 21.3994 7.58007 21.8394C7.30007 22.2594 7.16007 22.7594 7.16007 23.3394C7.16007 23.8794 7.29007 24.3494 7.55007 24.7494C7.83007 25.1694 8.19007 25.5094 8.63007 25.7694C9.07007 26.0294 9.55007 26.2194 10.0701 26.3394C10.6101 26.4594 11.1401 26.5194 11.6601 26.5194C12.1401 26.5194 12.6401 26.4594 13.1601 26.3394C13.6801 26.2394 14.1601 26.0694 14.6001 25.8294C15.0201 25.5694 15.3701 25.2294 15.6501 24.8094C15.9301 24.4094 16.0701 23.9194 16.0701 23.3394Z" fill="#58595B"/>
<path d="M24.8554 13.1394C26.5554 11.8394 27.9554 10.5194 29.0554 9.17938C30.1554 7.83938 31.0354 6.61938 31.6954 5.51937C32.4754 4.23938 33.0754 2.98938 33.4954 1.76937H36.6754L45.3754 13.3494L42.8254 15.4194C41.4654 13.6394 40.3254 12.1394 39.4054 10.9194C38.4854 9.69938 37.7354 8.69938 37.1554 7.91938C36.4954 7.01938 35.9554 6.27938 35.5354 5.69938C34.6954 7.11938 33.7854 8.41937 32.8054 9.59937C31.8254 10.7594 30.9054 11.7694 30.0454 12.6294C29.0454 13.6294 28.0454 14.5294 27.0454 15.3294L24.8554 13.1394ZM37.0354 21.4794H46.5754V24.2694H24.0154V21.4794H33.5554V14.7594H37.0354V21.4794Z" fill="#58595B"/>
<path d="M51.8807 19.5594C52.4807 18.6594 53.0507 17.6594 53.5907 16.5594C54.1507 15.4394 54.6607 14.2594 55.1207 13.0194C55.5607 11.7794 55.9307 10.5194 56.2307 9.23938C56.5307 7.95938 56.7207 6.65938 56.8007 5.33938H47.7107V2.69938H60.1907C60.1707 4.57937 59.9807 6.49937 59.6207 8.45938C59.4607 9.33937 59.2507 10.2794 58.9907 11.2794C58.7307 12.2794 58.4107 13.3094 58.0307 14.3694C57.6307 15.4494 57.1607 16.5494 56.6207 17.6694C56.1007 18.7694 55.4807 19.8694 54.7607 20.9694L51.8807 19.5594ZM64.5107 0.809375H67.8707V26.6694H64.5107V0.809375Z" fill="#58595B"/>
<path d="M92.6043 17.0394V28.2294H76.6743V17.0394H79.9443V20.1594H89.3043V17.0394H92.6043ZM79.9443 22.7994V25.5294H89.3043V22.7994H79.9443ZM84.6543 6.35938H89.0943V0.779375H92.6043V15.6894H89.0943V9.23938H84.8343C84.6543 10.8794 83.9643 12.2194 82.7643 13.2594C81.3443 14.4794 79.6843 15.0894 77.7843 15.0894C75.8843 15.0894 74.2243 14.4794 72.8043 13.2594C71.3843 12.0394 70.6743 10.3894 70.6743 8.30938C70.6743 6.22937 71.3843 4.57938 72.8043 3.35938C74.2243 2.13938 75.8843 1.52938 77.7843 1.52938C79.6843 1.52938 81.3443 2.13938 82.7643 3.35938C83.7043 4.17938 84.3343 5.17938 84.6543 6.35938ZM81.4743 8.30938C81.4743 7.12938 81.0943 6.15938 80.3343 5.39938C79.5943 4.61938 78.7443 4.22937 77.7843 4.22937C76.8243 4.22937 75.9643 4.61938 75.2043 5.39938C74.4643 6.15938 74.0943 7.12938 74.0943 8.30938C74.0943 9.48938 74.4643 10.4694 75.2043 11.2494C75.9643 12.0094 76.8243 12.3894 77.7843 12.3894C78.7443 12.3894 79.5943 12.0094 80.3343 11.2494C81.0943 10.4694 81.4743 9.48938 81.4743 8.30938Z" fill="#58595B"/>
<path d="M97.615 4.04938V1.43937H115.825V4.04938H109.795L115.885 9.68937L113.815 11.9994L106.735 5.57938C105.935 6.47938 105.105 7.29938 104.245 8.03938C103.405 8.77938 102.625 9.42938 101.905 9.98938C101.165 10.5494 100.525 11.0094 99.985 11.3694C99.465 11.7094 99.135 11.9294 98.995 12.0294L97.435 9.41937C97.915 9.13937 98.465 8.77938 99.085 8.33938C99.725 7.87938 100.365 7.37938 101.005 6.83938C101.625 6.31938 102.215 5.76937 102.775 5.18937C103.155 4.80937 103.475 4.42938 103.735 4.04938H97.615ZM95.365 12.6294H117.925V15.4194H108.385V17.2794C108.705 17.3394 109.035 17.4094 109.375 17.4894C110.295 17.7294 111.145 18.0994 111.925 18.5994C112.685 19.0994 113.305 19.7494 113.785 20.5494C114.285 21.3294 114.555 22.2594 114.595 23.3394C114.595 24.3394 114.365 25.2094 113.905 25.9494C113.445 26.6894 112.845 27.2994 112.105 27.7794C111.345 28.2594 110.495 28.6194 109.555 28.8594C108.615 29.0994 107.665 29.2194 106.705 29.2194C105.765 29.2194 104.835 29.1094 103.915 28.8894C102.995 28.6694 102.165 28.3194 101.425 27.8394C100.685 27.3594 100.075 26.7494 99.595 26.0094C99.115 25.2694 98.865 24.3694 98.845 23.3094C98.865 22.3294 99.105 21.4594 99.565 20.6994C100.025 19.9194 100.625 19.2694 101.365 18.7494C102.105 18.2294 102.935 17.8294 103.855 17.5494C104.195 17.4494 104.535 17.3594 104.875 17.2794V15.4194H95.365V12.6294ZM111.115 23.3394C111.115 22.7794 110.985 22.2894 110.725 21.8694C110.465 21.4294 110.125 21.0594 109.705 20.7594C109.285 20.4794 108.815 20.2694 108.295 20.1294C107.775 19.9694 107.245 19.8894 106.705 19.8894C106.225 19.8894 105.715 19.9594 105.175 20.0994C104.655 20.2394 104.175 20.4494 103.735 20.7294C103.295 21.0294 102.925 21.3994 102.625 21.8394C102.345 22.2594 102.205 22.7594 102.205 23.3394C102.205 23.8794 102.335 24.3494 102.595 24.7494C102.875 25.1694 103.235 25.5094 103.675 25.7694C104.115 26.0294 104.595 26.2194 105.115 26.3394C105.655 26.4594 106.185 26.5194 106.705 26.5194C107.185 26.5194 107.685 26.4594 108.205 26.3394C108.725 26.2394 109.205 26.0694 109.645 25.8294C110.065 25.5694 110.415 25.2294 110.695 24.8094C110.975 24.4094 111.115 23.9194 111.115 23.3394Z" fill="#58595B"/>
<path d="M140.27 22.9194C140.27 23.9394 140.04 24.8394 139.58 25.6194C139.12 26.3994 138.52 27.0594 137.78 27.5994C137.04 28.1194 136.2 28.5094 135.26 28.7694C134.32 29.0294 133.36 29.1594 132.38 29.1594C131.44 29.1594 130.5 29.0294 129.56 28.7694C128.64 28.5294 127.81 28.1494 127.07 27.6294C126.31 27.1094 125.69 26.4594 125.21 25.6794C124.75 24.8994 124.52 23.9694 124.52 22.8894C124.52 21.8294 124.74 20.9094 125.18 20.1294C125.64 19.3494 126.24 18.6994 126.98 18.1794C127.72 17.6794 128.56 17.3094 129.5 17.0694C130.46 16.8094 131.43 16.6694 132.41 16.6494C133.31 16.6494 134.22 16.7794 135.14 17.0394C136.08 17.2794 136.93 17.6494 137.69 18.1494C138.45 18.6694 139.07 19.3294 139.55 20.1294C140.03 20.9094 140.27 21.8394 140.27 22.9194ZM132.35 26.4594C132.89 26.4594 133.42 26.3894 133.94 26.2494C134.48 26.1094 134.96 25.8994 135.38 25.6194C135.78 25.3194 136.11 24.9394 136.37 24.4794C136.65 24.0394 136.79 23.5194 136.79 22.9194C136.79 22.3194 136.66 21.7994 136.4 21.3594C136.14 20.9194 135.8 20.5494 135.38 20.2494C134.96 19.9694 134.48 19.7594 133.94 19.6194C133.4 19.4594 132.84 19.3694 132.26 19.3494C131.76 19.3494 131.25 19.4194 130.73 19.5594C130.23 19.6994 129.77 19.9094 129.35 20.1894C128.93 20.4894 128.59 20.8694 128.33 21.3294C128.07 21.7694 127.94 22.2994 127.94 22.9194C127.94 23.4994 128.06 24.0094 128.3 24.4494C128.56 24.8894 128.9 25.2594 129.32 25.5594C129.72 25.8594 130.18 26.0794 130.7 26.2194C131.24 26.3794 131.79 26.4594 132.35 26.4594ZM140.03 7.34938H144.05V10.2294H140.03V16.0494H136.61V0.779375H140.03V7.34938ZM133.25 8.33938C133.25 10.5394 132.54 12.2194 131.12 13.3794C129.72 14.5194 128.07 15.0894 126.17 15.0894C124.27 15.0894 122.61 14.5194 121.19 13.3794C119.79 12.2194 119.09 10.5394 119.09 8.33938C119.09 6.13938 119.79 4.46938 121.19 3.32938C122.61 2.16938 124.27 1.58938 126.17 1.58938C128.07 1.58938 129.72 2.16938 131.12 3.32938C132.54 4.46938 133.25 6.13938 133.25 8.33938ZM129.83 8.33938C129.83 7.07938 129.46 6.08938 128.72 5.36938C127.98 4.64938 127.13 4.28938 126.17 4.28938C125.21 4.28938 124.36 4.64938 123.62 5.36938C122.88 6.08938 122.51 7.07938 122.51 8.33938C122.51 9.59938 122.88 10.5894 123.62 11.3094C124.36 12.0294 125.21 12.3894 126.17 12.3894C127.13 12.3894 127.98 12.0294 128.72 11.3094C129.46 10.5894 129.83 9.59938 129.83 8.33938Z" fill="#58595B"/>
<path d="M151.657 16.6494C151.337 16.5894 151.017 16.5194 150.697 16.4394C149.857 16.1994 149.127 15.8194 148.507 15.2994C147.867 14.7994 147.357 14.1694 146.977 13.4094C146.597 12.6294 146.387 11.7094 146.347 10.6494C146.347 9.76938 146.497 8.97938 146.797 8.27938C147.117 7.57938 147.547 6.90938 148.087 6.26938H144.937V3.65938H151.477V0.359375H154.957V3.65938H161.497V6.29938H158.617C158.837 6.59938 159.037 6.93937 159.217 7.31937C159.417 7.69938 159.587 8.08938 159.727 8.48938C159.847 8.90938 159.947 9.30937 160.027 9.68937C160.127 10.0694 160.177 10.3994 160.177 10.6794C160.177 11.6194 159.997 12.4694 159.637 13.2294C159.277 13.9694 158.787 14.5994 158.167 15.1194C157.547 15.6594 156.827 16.0694 156.007 16.3494C155.707 16.4694 155.397 16.5594 155.077 16.6194V19.8594H162.427V22.7394H144.727V19.8594H151.657V16.6494ZM149.707 10.6794C149.767 11.6794 150.117 12.5094 150.757 13.1694C151.397 13.8294 152.237 14.1594 153.277 14.1594C154.257 14.1594 155.077 13.8494 155.737 13.2294C156.417 12.5894 156.757 11.7294 156.757 10.6494C156.757 9.60938 156.447 8.73938 155.827 8.03938C155.227 7.31938 154.377 6.95938 153.277 6.95938C152.177 6.95938 151.317 7.29938 150.697 7.97938C150.097 8.65938 149.767 9.55938 149.707 10.6794ZM166.717 26.6994H163.177V0.779375H166.717V26.6994Z" fill="#58595B"/>
</svg>
