<svg width="117" height="60" viewBox="0 0 117 60" fill="none" xmlns="http://www.w3.org/2000/svg">
<g id="logo_kra_black" clip-path="url(#clip0_160_1412)">
<path id="Vector" d="M4.16952 15.3853H0V35.5672H4.16952V15.3853Z" fill="#515151"/>
<g id="Group">
<path id="Vector_2" d="M24.7296 15.3853L10.3999 24.7735C10.1055 24.9713 9.94115 25.217 9.94115 25.4694C9.94115 25.7218 10.1055 25.9743 10.3999 26.1653L24.7296 35.5536H17.7804L6.63429 28.2463C5.50461 27.5094 4.88843 26.5269 4.88843 25.4694C4.88843 24.4119 5.51146 23.4226 6.63429 22.6925L17.7804 15.3853H24.7296Z" fill="#515151"/>
<path id="Vector_3" d="M52.1362 21.171C52.1362 17.5208 48.6513 15.3853 44.0299 15.3853H25.7155V18.2508H43.1399C45.6594 18.2508 47.7065 19.1924 47.7065 21.171C47.7065 23.1496 45.6594 24.0912 43.1399 24.0912H36.7863C34.8351 24.0912 33.3083 24.6575 32.7058 25.6059C32.2402 26.3359 32.1444 27.5163 34.3147 28.9354L44.4476 35.5672H51.3968C51.3968 35.5672 38.5459 27.1615 38.2378 26.9568H44.0162C48.6376 26.9568 52.1225 24.8144 52.1225 21.171" fill="#515151"/>
<path id="Vector_4" d="M83.9519 35.5606L71.6761 17.2003C70.5259 15.481 68.8348 15.2285 67.9379 15.2285C67.041 15.2285 65.3431 15.4878 64.1997 17.2003L51.924 35.5606H57.0588C57.0588 35.5606 66.2126 21.874 67.9379 19.2881C69.6633 21.8671 78.817 35.5606 78.817 35.5606H83.9588H83.9519Z" fill="#515151"/>
</g>
<g id="Clip path group">
<mask id="mask0_160_1412" style="mask-type:luminance" maskUnits="userSpaceOnUse" x="25" y="6" width="25" height="38">
<g id="clippath">
<path id="Vector_5" d="M49.6235 6.02441C36.4166 6.02441 25.6607 16.7294 25.647 29.8907C25.647 34.8782 27.167 39.6542 30.0493 43.7069L32.2881 42.124C29.7344 38.5352 28.3925 34.3051 28.3925 29.8907C28.4062 18.2236 37.9365 8.74672 49.6372 8.76037V6.02441H49.6167" fill="white"/>
</g>
</mask>
<g mask="url(#mask0_160_1412)">
<g id="Group_2">
<path id="Vector_6" d="M48.0079 0.00289552L16.1171 8.58984L27.2734 49.7366L59.1642 41.1496L48.0079 0.00289552Z" fill="#515151"/>
</g>
</g>
</g>
<g id="Group_3">
<path id="Vector_7" d="M52.8756 47.5075V46.1839H49.8289V44.3145H47.5353V46.1839H44.4886V47.5075H46.4535L46.3371 47.5962C45.9469 47.9101 45.6251 48.299 45.3786 48.7629C45.1322 49.2201 45.0089 49.725 45.0089 50.2571C45.0089 51.2123 45.3718 52.0447 46.0907 52.727C46.8096 53.4161 47.6859 53.7641 48.6855 53.7641C49.6851 53.7641 50.5614 53.4161 51.2735 52.727C51.9855 52.0379 52.3484 51.2055 52.3484 50.2503C52.3484 49.7181 52.2251 49.2201 51.9787 48.7561C51.7322 48.2922 51.4104 47.9033 51.0202 47.5894L50.9106 47.5007H52.8756V47.5075ZM49.7262 51.8469C49.4249 52.304 49.0757 52.5291 48.6855 52.5291C48.2952 52.5291 47.9461 52.2972 47.638 51.8469C47.3367 51.3966 47.1861 50.8644 47.1861 50.2571C47.1861 49.6499 47.3367 49.1177 47.638 48.6742C47.9392 48.2308 48.2952 47.9988 48.6855 47.9988C49.0757 47.9988 49.4249 48.2239 49.7262 48.6742C50.0206 49.1177 50.1643 49.6499 50.1643 50.2571C50.1643 50.8644 50.0137 51.3966 49.7262 51.8469Z" fill="#515151"/>
<path id="Vector_8" d="M57.052 60.0003V58.6562H49.4592V55.0469H47.1588V58.3559C47.1588 58.8608 47.3162 59.2634 47.6175 59.5568C47.9256 59.8502 48.3158 60.0003 48.7745 60.0003H57.052Z" fill="#515151"/>
<path id="Vector_9" d="M56.5179 44.4917H54.2243V55.9268H56.5179V49.4246H58.921V48.0873H56.5179V44.4917Z" fill="#515151"/>
<path id="Vector_10" d="M72.9221 51.8332V50.4891H70.5806L70.6354 50.4141C70.786 50.1957 70.923 49.8341 71.0394 49.3429C71.1489 48.8516 71.2037 48.3809 71.2037 47.9442V44.5669H61.0777V45.911H68.9101V48.0124C68.9101 48.4491 68.8895 48.8857 68.8553 49.3156C68.8211 49.7454 68.7389 50.1275 68.6157 50.455L68.602 50.4891H59.4277V51.8332H64.9802V54.4327H61.0161V55.77H68.8827V59.9933H71.1763V54.4259H67.2806V51.8264H72.929L72.9221 51.8332Z" fill="#515151"/>
<path id="Vector_11" d="M82.0691 44.9966H74.7981V52.7678C74.7981 53.259 74.9487 53.6616 75.2363 53.955C75.5238 54.2483 75.9141 54.3985 76.4002 54.3985H82.0691V44.9966ZM77.0917 46.3339H79.7687V53.0544H77.0917V46.3339Z" fill="#515151"/>
<path id="Vector_12" d="M86.3071 44.4917H84.0067V59.9932H86.3071V49.6498H88.7102V48.3057H86.3071V44.4917Z" fill="#515151"/>
<path id="Vector_13" d="M98.131 53.5117C97.193 53.3001 96.344 52.6724 95.6115 51.6422C94.8583 50.5778 94.4681 49.2883 94.4681 47.7873V44.833H92.1403V47.7873C92.1403 49.2747 91.7637 50.5642 91.0175 51.6354C90.2917 52.6724 89.4428 53.3001 88.4843 53.5117L89.5865 54.5351C90.3397 54.4532 91.0996 54.0984 91.8596 53.4844C92.6264 52.8567 93.0988 52.188 93.2631 51.4921L93.311 51.2942L93.3658 51.4853C93.5507 52.188 94.0299 52.8567 94.7899 53.4844C95.5362 54.1052 96.303 54.46 97.0629 54.5283L98.1378 53.5048L98.131 53.5117Z" fill="#515151"/>
<path id="Vector_14" d="M101.178 44.4917H98.8773V59.9932H101.178V49.5679H103.574V48.2238H101.178V44.4917Z" fill="#515151"/>
<path id="Vector_15" d="M114.7 44.492V54.3033L114.665 54.3169C114.371 54.4193 114.001 54.5011 113.563 54.5762C113.132 54.6444 112.652 54.6785 112.125 54.6785H110.236V53.4572L110.27 53.4436C110.982 53.2048 111.578 52.7681 112.029 52.1677C112.488 51.5605 112.714 50.8714 112.714 50.1209C112.714 49.6569 112.618 49.2066 112.427 48.7904C112.242 48.3742 111.981 48.0058 111.673 47.6919L111.584 47.6032H113.323V46.2796H110.229V44.4102H107.928V46.2796H104.847V47.6032H106.593L106.504 47.6919C106.182 47.999 105.929 48.3674 105.737 48.7904C105.553 49.2066 105.464 49.6569 105.464 50.1209C105.464 50.8782 105.696 51.5673 106.148 52.1677C106.6 52.775 107.189 53.198 107.894 53.4299H107.928V54.6785H104.758V56.0226H112.029C112.522 56.0226 113.002 55.968 113.447 55.8589C113.892 55.7497 114.289 55.6269 114.611 55.4768L114.679 55.4427V60.0003H116.979V44.492H114.679H114.7ZM109.099 52.3656C108.709 52.3656 108.36 52.1336 108.079 51.6833C107.798 51.2398 107.655 50.7076 107.655 50.114C107.655 49.5205 107.798 48.9883 108.079 48.5448C108.367 48.0877 108.709 47.8625 109.099 47.8625C109.489 47.8625 109.845 48.0945 110.133 48.5448C110.407 48.9883 110.551 49.5205 110.551 50.114C110.551 50.7076 110.414 51.2398 110.133 51.6833C109.852 52.1404 109.503 52.3656 109.099 52.3656Z" fill="#515151"/>
</g>
</g>
<defs>
<clipPath id="clip0_160_1412">
<rect width="117" height="60" fill="white"/>
</clipPath>
</defs>
</svg>
