<?xml version="1.0" encoding="UTF-8"?>
<svg xmlns="http://www.w3.org/2000/svg" xmlns:xlink="http://www.w3.org/1999/xlink" width="300px" height="29px" viewBox="0 0 296 29" version="1.1">
<g id="surface1">
<path style=" stroke:none;fill-rule:nonzero;fill:rgb(0%,26.666667%,58.039216%);fill-opacity:1;" d="M 4.519531 2.105469 C 6.933594 1.234375 9.636719 1.015625 12.125 1.71875 C 13.527344 2.082031 14.777344 3.019531 15.523438 4.261719 C 16.277344 5.660156 16.328125 7.308594 16.34375 8.859375 C 14.628906 8.863281 12.917969 8.863281 11.203125 8.851562 C 10.96875 7.769531 11.117188 6.371094 10.179688 5.601562 C 8.988281 4.777344 6.988281 5.179688 6.433594 6.597656 C 5.945312 7.757812 6.320312 9.15625 7.246094 9.988281 C 9.464844 11.886719 12.394531 12.753906 14.511719 14.796875 C 15.722656 15.917969 16.507812 17.515625 16.542969 19.175781 C 16.84375 21.585938 16.085938 24.347656 13.945312 25.714844 C 11.785156 27.078125 9.085938 27.109375 6.625 27.015625 C 4.636719 26.832031 2.441406 26.027344 1.453125 24.164062 C 0.453125 22.59375 0.539062 20.632812 0.441406 18.851562 C 2.207031 18.851562 3.972656 18.851562 5.738281 18.851562 C 5.894531 20.019531 5.726562 21.359375 6.488281 22.347656 C 7.179688 23.308594 8.519531 23.289062 9.558594 23.113281 C 11.320312 22.558594 11.726562 20.054688 10.570312 18.734375 C 9.105469 17.046875 6.953125 16.226562 5.148438 14.988281 C 3.632812 14.078125 2.308594 12.828125 1.445312 11.28125 C 0.539062 9.023438 0.523438 6.25 1.949219 4.199219 C 2.496094 3.195312 3.511719 2.566406 4.519531 2.105469 Z M 4.519531 2.105469 "/>
<path style=" stroke:none;fill-rule:nonzero;fill:rgb(0%,26.666667%,58.039216%);fill-opacity:1;" d="M 72.917969 2.105469 C 75.335938 1.234375 78.035156 1.015625 80.523438 1.71875 C 81.925781 2.082031 83.175781 3.019531 83.921875 4.261719 C 84.675781 5.660156 84.726562 7.308594 84.742188 8.859375 C 83.027344 8.863281 81.316406 8.863281 79.605469 8.851562 C 79.367188 7.769531 79.515625 6.371094 78.578125 5.601562 C 77.382812 4.777344 75.386719 5.179688 74.832031 6.597656 C 74.34375 7.757812 74.71875 9.15625 75.644531 9.988281 C 77.867188 11.886719 80.792969 12.753906 82.914062 14.796875 C 84.121094 15.917969 84.910156 17.515625 84.945312 19.175781 C 85.246094 21.585938 84.488281 24.347656 82.34375 25.714844 C 80.183594 27.078125 77.484375 27.109375 75.023438 27.015625 C 73.035156 26.832031 70.839844 26.027344 69.855469 24.164062 C 68.851562 22.59375 68.9375 20.632812 68.84375 18.851562 C 70.605469 18.851562 72.371094 18.851562 74.136719 18.851562 C 74.292969 20.019531 74.128906 21.359375 74.886719 22.347656 C 75.582031 23.308594 76.917969 23.289062 77.960938 23.113281 C 79.71875 22.558594 80.128906 20.054688 78.972656 18.734375 C 77.503906 17.046875 75.351562 16.226562 73.546875 14.988281 C 72.035156 14.078125 70.707031 12.828125 69.84375 11.28125 C 68.9375 9.023438 68.925781 6.25 70.347656 4.199219 C 70.894531 3.195312 71.90625 2.566406 72.917969 2.105469 Z M 72.917969 2.105469 "/>
<path style=" stroke:none;fill-rule:nonzero;fill:rgb(0%,26.666667%,58.039216%);fill-opacity:1;" d="M 137.335938 1.824219 C 139.300781 1.308594 141.410156 1.125 143.402344 1.609375 C 145.335938 2.015625 147.117188 3.238281 148.066406 4.992188 C 148.738281 6.394531 148.859375 7.976562 148.90625 9.507812 C 147.152344 9.503906 145.398438 9.503906 143.648438 9.5 C 143.429688 8.191406 143.597656 6.410156 142.3125 5.589844 C 141.269531 5.042969 139.808594 4.945312 138.894531 5.804688 C 137.761719 7.042969 137.679688 8.824219 137.527344 10.402344 C 137.363281 13.46875 137.363281 16.550781 137.660156 19.605469 C 137.816406 20.828125 138.105469 22.300781 139.28125 22.960938 C 140.644531 23.5625 142.164062 23.140625 143.570312 22.957031 C 143.554688 21.160156 143.554688 19.363281 143.554688 17.566406 C 142.644531 17.5625 141.734375 17.558594 140.824219 17.554688 C 140.816406 16.214844 140.816406 14.875 140.824219 13.535156 C 143.503906 13.53125 146.1875 13.53125 148.867188 13.535156 C 148.867188 17.765625 148.878906 22 148.863281 26.230469 C 145.175781 26.792969 141.34375 27.558594 137.644531 26.667969 C 136.054688 26.335938 134.59375 25.410156 133.664062 24.074219 C 132.121094 21.472656 132.210938 18.308594 132.050781 15.390625 C 132.070312 12.0625 131.859375 8.566406 133.222656 5.441406 C 133.980469 3.691406 135.511719 2.359375 137.335938 1.824219 Z M 137.335938 1.824219 "/>
<path style=" stroke:none;fill-rule:nonzero;fill:rgb(0%,26.666667%,58.039216%);fill-opacity:1;" d="M 238.175781 3.371094 C 240.019531 1.632812 242.691406 1.316406 245.109375 1.300781 C 247.070312 1.40625 249.195312 1.851562 250.523438 3.433594 C 251.878906 4.871094 251.933594 6.996094 251.957031 8.859375 C 250.242188 8.863281 248.53125 8.863281 246.820312 8.851562 C 246.582031 7.769531 246.730469 6.371094 245.792969 5.601562 C 244.601562 4.777344 242.601562 5.179688 242.050781 6.597656 C 241.558594 7.757812 241.9375 9.15625 242.859375 9.988281 C 245.082031 11.886719 248.011719 12.753906 250.128906 14.796875 C 251.335938 15.917969 252.125 17.515625 252.160156 19.175781 C 252.460938 21.585938 251.703125 24.347656 249.5625 25.714844 C 247.398438 27.078125 244.699219 27.109375 242.238281 27.015625 C 240.25 26.832031 238.058594 26.027344 237.070312 24.164062 C 236.070312 22.59375 236.152344 20.632812 236.058594 18.851562 C 237.820312 18.851562 239.585938 18.851562 241.355469 18.851562 C 241.507812 20.019531 241.34375 21.359375 242.101562 22.347656 C 242.796875 23.308594 244.128906 23.289062 245.175781 23.113281 C 246.9375 22.558594 247.339844 20.054688 246.1875 18.734375 C 244.71875 17.046875 242.570312 16.226562 240.761719 14.988281 C 239.246094 14.078125 237.921875 12.828125 237.058594 11.28125 C 235.992188 8.703125 236.226562 5.472656 238.175781 3.371094 Z M 238.175781 3.371094 "/>
<path style=" stroke:none;fill-rule:nonzero;fill:rgb(0%,26.666667%,58.039216%);fill-opacity:1;" d="M 263.046875 1.371094 C 264.632812 1.15625 266.222656 1.398438 267.75 1.824219 C 269.398438 2.332031 270.816406 3.5625 271.507812 5.148438 C 272.835938 7.953125 272.578125 11.164062 272.652344 14.179688 C 272.589844 17.414062 272.902344 20.9375 271.183594 23.84375 C 270.125 25.734375 267.96875 26.699219 265.898438 26.957031 C 263.4375 27.207031 260.722656 27.105469 258.640625 25.597656 C 256.875 24.398438 256.066406 22.269531 255.808594 20.226562 C 255.359375 16.582031 255.394531 12.890625 255.636719 9.234375 C 255.835938 7.1875 256.324219 5.039062 257.773438 3.496094 C 259.097656 2.011719 261.140625 1.535156 263.046875 1.371094 M 263.691406 5.234375 C 262.363281 5.242188 261.605469 6.554688 261.320312 7.703125 C 260.726562 10.464844 260.867188 13.308594 260.898438 16.113281 C 261.003906 18.121094 260.957031 20.222656 261.839844 22.078125 C 262.578125 23.207031 264.226562 23.5 265.390625 22.878906 C 266.378906 22.519531 266.675781 21.433594 266.910156 20.523438 C 267.390625 18.175781 267.296875 15.753906 267.320312 13.371094 C 267.195312 11.15625 267.328125 8.859375 266.542969 6.742188 C 266.125 5.632812 264.835938 5.015625 263.691406 5.234375 Z M 263.691406 5.234375 "/>
<path style=" stroke:none;fill-rule:nonzero;fill:rgb(0%,26.666667%,58.039216%);fill-opacity:1;" d="M 25.117188 1.78125 C 27.417969 1.769531 29.71875 1.765625 32.019531 1.777344 C 34.289062 10.042969 36.542969 18.308594 38.757812 26.589844 C 36.898438 26.585938 35.039062 26.582031 33.179688 26.574219 C 32.730469 24.753906 32.289062 22.933594 31.839844 21.113281 C 29.5 21.105469 27.164062 21.097656 24.824219 21.113281 C 24.402344 22.941406 23.960938 24.765625 23.496094 26.585938 C 21.734375 26.582031 19.972656 26.585938 18.214844 26.585938 C 20.558594 18.328125 22.753906 10.03125 25.117188 1.78125 M 28.242188 6.730469 C 27.472656 10.234375 26.679688 13.734375 25.921875 17.242188 C 27.515625 17.242188 29.109375 17.242188 30.707031 17.242188 C 29.871094 13.742188 29.058594 10.238281 28.242188 6.730469 Z M 28.242188 6.730469 "/>
<path style=" stroke:none;fill-rule:nonzero;fill:rgb(0%,26.666667%,58.039216%);fill-opacity:1;" d="M 40.878906 1.773438 C 43.71875 1.769531 46.558594 1.765625 49.398438 1.777344 C 50.6875 7.273438 51.871094 12.792969 53.230469 18.269531 C 54.730469 12.808594 55.945312 7.277344 57.316406 1.78125 C 60.046875 1.765625 62.773438 1.769531 65.5 1.773438 C 65.503906 10.042969 65.503906 18.3125 65.5 26.585938 C 63.785156 26.582031 62.070312 26.582031 60.355469 26.582031 C 60.316406 20.386719 60.425781 14.191406 60.292969 8 C 58.738281 14.1875 57.183594 20.378906 55.660156 26.574219 C 53.957031 26.582031 52.253906 26.582031 50.554688 26.578125 C 49.136719 20.488281 47.679688 14.40625 46.246094 8.320312 C 46.121094 14.40625 46.222656 20.496094 46.1875 26.585938 C 44.417969 26.582031 42.648438 26.582031 40.878906 26.582031 C 40.878906 18.3125 40.878906 10.042969 40.878906 1.773438 Z M 40.878906 1.773438 "/>
<path style=" stroke:none;fill-rule:nonzero;fill:rgb(0%,26.666667%,58.039216%);fill-opacity:1;" d="M 88.355469 1.769531 C 90.125 1.773438 91.894531 1.773438 93.664062 1.773438 C 93.679688 7.144531 93.652344 12.515625 93.664062 17.886719 C 93.722656 19.480469 93.667969 21.269531 94.8125 22.53125 C 96 23.421875 97.769531 23.425781 98.953125 22.53125 C 100.175781 21.363281 99.980469 19.570312 100.089844 18.046875 C 100.136719 12.625 100.082031 7.195312 100.105469 1.773438 C 101.875 1.773438 103.644531 1.773438 105.414062 1.773438 C 105.402344 7.734375 105.441406 13.699219 105.40625 19.660156 C 105.222656 21.359375 104.855469 23.191406 103.605469 24.453125 C 101.765625 26.652344 98.640625 27.179688 95.925781 27.046875 C 93.730469 26.847656 91.355469 26.171875 89.957031 24.335938 C 88.484375 22.667969 88.457031 20.3125 88.367188 18.207031 C 88.328125 12.730469 88.367188 7.25 88.355469 1.769531 Z M 88.355469 1.769531 "/>
<path style=" stroke:none;fill-rule:nonzero;fill:rgb(0%,26.666667%,58.039216%);fill-opacity:1;" d="M 109.441406 1.769531 C 111.832031 1.769531 114.226562 1.761719 116.621094 1.792969 C 118.738281 7.402344 120.886719 13 123.0625 18.585938 C 123.183594 12.980469 123.085938 7.375 123.121094 1.769531 C 124.78125 1.773438 126.441406 1.773438 128.105469 1.773438 C 128.109375 10.042969 128.109375 18.3125 128.105469 26.585938 C 125.765625 26.582031 123.425781 26.59375 121.085938 26.570312 C 118.941406 20.628906 116.707031 14.71875 114.476562 8.804688 C 114.367188 14.730469 114.457031 20.660156 114.425781 26.585938 C 112.761719 26.582031 111.101562 26.582031 109.441406 26.582031 C 109.4375 18.3125 109.4375 10.042969 109.441406 1.769531 Z M 109.441406 1.769531 "/>
<path style=" stroke:none;fill-rule:nonzero;fill:rgb(0%,26.666667%,58.039216%);fill-opacity:1;" d="M 160.621094 1.773438 C 163.457031 1.769531 166.296875 1.765625 169.136719 1.777344 C 170.425781 7.273438 171.609375 12.792969 172.96875 18.269531 C 174.46875 12.808594 175.683594 7.277344 177.054688 1.78125 C 179.78125 1.765625 182.511719 1.769531 185.238281 1.773438 C 185.242188 10.042969 185.242188 18.3125 185.238281 26.585938 C 183.523438 26.582031 181.808594 26.582031 180.09375 26.582031 C 180.054688 20.386719 180.164062 14.191406 180.03125 8 C 178.476562 14.1875 176.921875 20.378906 175.398438 26.574219 C 173.695312 26.582031 171.992188 26.582031 170.292969 26.578125 C 168.875 20.488281 167.417969 14.40625 165.984375 8.320312 C 165.859375 14.40625 165.960938 20.496094 165.925781 26.585938 C 164.15625 26.582031 162.386719 26.582031 160.621094 26.582031 C 160.617188 18.3125 160.613281 10.042969 160.621094 1.773438 Z M 160.621094 1.773438 "/>
<path style=" stroke:none;fill-rule:nonzero;fill:rgb(0%,26.666667%,58.039216%);fill-opacity:1;" d="M 189.265625 1.773438 C 193.824219 1.769531 198.382812 1.769531 202.941406 1.773438 C 202.945312 3.0625 202.953125 4.351562 202.941406 5.636719 C 200.152344 5.640625 197.363281 5.640625 194.574219 5.640625 C 194.574219 7.625 194.574219 9.613281 194.574219 11.597656 C 197.132812 11.601562 199.691406 11.578125 202.246094 11.636719 C 202.28125 12.964844 202.300781 14.296875 202.304688 15.625 C 199.726562 15.632812 197.152344 15.625 194.574219 15.628906 C 194.574219 17.992188 194.570312 20.351562 194.578125 22.714844 C 197.472656 22.714844 200.367188 22.714844 203.261719 22.71875 C 203.265625 24.003906 203.269531 25.292969 203.261719 26.582031 C 198.597656 26.585938 193.933594 26.585938 189.265625 26.582031 C 189.261719 18.3125 189.261719 10.042969 189.265625 1.773438 Z M 189.265625 1.773438 "/>
<path style=" stroke:none;fill-rule:nonzero;fill:rgb(0%,26.666667%,58.039216%);fill-opacity:1;" d="M 206.488281 1.773438 C 209.757812 1.796875 213.03125 1.71875 216.304688 1.785156 C 218.652344 1.902344 221.023438 3.238281 221.972656 5.449219 C 223.457031 8.898438 223.207031 12.773438 223.226562 16.433594 C 223.214844 19.101562 222.878906 22.007812 221.085938 24.125 C 219.851562 25.65625 217.914062 26.480469 215.980469 26.542969 C 212.816406 26.664062 209.648438 26.554688 206.488281 26.582031 C 206.484375 18.3125 206.480469 10.042969 206.488281 1.773438 M 211.796875 5.605469 C 211.792969 11.316406 211.792969 17.03125 211.796875 22.742188 C 213.121094 22.671875 214.511719 22.828125 215.78125 22.355469 C 217.164062 21.601562 217.519531 19.917969 217.703125 18.480469 C 218.03125 15.46875 217.941406 12.425781 217.648438 9.414062 C 217.476562 8.179688 217.128906 6.808594 215.984375 6.121094 C 214.691406 5.453125 213.1875 5.6875 211.796875 5.605469 Z M 211.796875 5.605469 "/>
<path style=" stroke:none;fill-rule:nonzero;fill:rgb(0%,26.666667%,58.039216%);fill-opacity:1;" d="M 227.25 1.769531 C 229.015625 1.773438 230.785156 1.773438 232.554688 1.773438 C 232.558594 10.042969 232.558594 18.3125 232.554688 26.585938 C 230.785156 26.582031 229.015625 26.582031 227.25 26.582031 C 227.246094 18.3125 227.242188 10.042969 227.25 1.769531 Z M 227.25 1.769531 "/>
<path style=" stroke:none;fill-rule:nonzero;fill:rgb(0%,26.666667%,58.039216%);fill-opacity:1;" d="M 276.65625 1.769531 C 279.046875 1.769531 281.441406 1.761719 283.835938 1.792969 C 285.953125 7.402344 288.105469 13 290.28125 18.585938 C 290.402344 12.980469 290.300781 7.375 290.335938 1.769531 C 291.996094 1.773438 293.65625 1.773438 295.324219 1.773438 C 295.324219 10.042969 295.324219 18.3125 295.324219 26.585938 C 292.980469 26.582031 290.640625 26.59375 288.304688 26.570312 C 286.160156 20.628906 283.921875 14.71875 281.695312 8.804688 C 281.582031 14.730469 281.675781 20.660156 281.644531 26.585938 C 279.976562 26.582031 278.316406 26.582031 276.65625 26.582031 C 276.652344 18.3125 276.652344 10.042969 276.65625 1.769531 Z M 276.65625 1.769531 "/>
</g>
</svg>
