<?xml version="1.0" encoding="UTF-8" standalone="no"?>
<!-- Created with Inkscape (http://www.inkscape.org/) -->

<svg
   width="127.80389mm"
   height="39.952084mm"
   viewBox="0 0 127.80389 39.952084"
   version="1.1"
   id="svg5"
   xml:space="preserve"
   xmlns="http://www.w3.org/2000/svg"
   xmlns:svg="http://www.w3.org/2000/svg"><defs
     id="defs2" /><g
     id="layer1"
     transform="translate(-32.626273,-38.334138)" /><g
     transform="matrix(0.26458333,0,0,0.26458334,-14.174175,-34.604855)"
     id="g54"><g
       fill="#3b4951"
       id="g50"><path
         d="m 156.2,220.82 c -3.34,-4.85 -8.13,-8.83 -16.85,-12.28 a 154.76,154.76 0 0 0 -16.46,-5.34 c -6.33,-1.8 -16.26,-3.34 -26.26,-9 -2.1,-1.19 -5.12,-4.14 -5.12,-7.88 0,-1.94 0,-6.52 7.33,-10.23 4.54,-2.28 11.64,-3.47 17.82,-3.72 1.45,-0.05 2.88,-0.08 4.27,-0.08 a 120.88,120.88 0 0 1 33.29,4.71 v -19 c 0,-7 -5.24,-8.62 -6.55,-8.93 -13.69,-2.45 -31.79,-3.83 -47.65,-1.84 -9.35,1.18 -18.15,3.14 -25.62,6.68 -7.47,3.54 -13,8.29 -16.41,14.37 A 34.62,34.62 0 0 0 53.74,183 c -0.11,1.4 -0.16,2.76 -0.16,4.06 a 35,35 0 0 0 3.42,15.87 32.32,32.32 0 0 0 8.61,10.85 c 7.15,5.71 15.54,9.16 24.11,11.4 7.19,1.86 21.6,5.8 25.67,8 4.07,2.2 5.9,4.44 6.41,7.4 1,6.1 -2.79,9.47 -5.31,11.09 -4.57,2.95 -10.82,4.27 -22.49,3.78 -15.07,-0.62 -30.23,-3.14 -39,-6.06 v 27 c 2.34,0.56 5.58,1.26 9.72,2 a 189.18,189.18 0 0 0 41,3.29 c 18.65,-0.52 33.36,-4.65 42.63,-11.53 9.27,-6.88 12.65,-15.35 13.28,-25.51 0.09,-1.46 0.13,-2.88 0.13,-4.23 -0.02,-8.97 -2.24,-14.74 -5.56,-19.59 z"
         id="path42" /><path
         d="m 220.42,258.31 c -5,-1.73 -9,-4.06 -12,-9.09 a 20.15,20.15 0 0 1 -2.34,-11.1 h 54.41 c 2.25,-0.07 9.24,-1 8.58,-9.41 a 72.53,72.53 0 0 0 -3.28,-17.29 c -3,-9 -7.27,-15.22 -16.33,-21 -7.41,-4.76 -18.55,-7.36 -28.17,-7.36 a 69.39,69.39 0 0 0 -28,5.92 36.45,36.45 0 0 0 -14.87,11.84 c -6.55,9 -7.92,20.67 -7.9,30.77 0,2 0,3.91 0.11,5.73 a 46.75,46.75 0 0 0 9.71,27 c 6.72,8.36 17.31,15.27 35,16.85 5,0.43 9.73,0.62 14.13,0.62 17.15,0 26.54,-2.79 32.5,-4.51 v -20.19 c -6,1.88 -12.06,3.67 -24.42,3.66 -6.42,-0.01 -12.12,-0.67 -17.13,-2.44 z m -13.2,-44.77 a 15.63,15.63 0 0 1 5,-8.34 14.34,14.34 0 0 1 8.32,-3.15 h 1.25 a 14.79,14.79 0 0 1 8.27,2.32 12.85,12.85 0 0 1 4.45,5.09 c 1.77,3.58 1.51,12.1 1.51,12.1 h -29.33 a 40.54,40.54 0 0 1 0.53,-8.02 z"
         id="path44" /><path
         d="m 367.7,149 h -41.58 -0.67 -1.07 a 12.79,12.79 0 0 0 -11.77,8.13 l -0.67,2 -40.85,120.09 h 38.46 l 8.57,-31 h 45 l 9.17,31 h 40.46 z m -44.53,75.15 15.43,-47.33 0.09,-0.24 a 2.43,2.43 0 0 1 2.37,-1.63 2.38,2.38 0 0 1 2.33,1.56 l 15.33,47.64 z"
         id="path46" /><path
         d="m 508.7,149 c -9.71,0 -10.84,7.39 -10.95,9.91 v 39.61 H 459.33 V 149 h -27.94 c -9.72,0 -10.85,7.39 -11,9.91 v 120.31 h 38.9 v -51.58 h 38.42 v 51.58 h 38.9 V 149 Z"
         id="path48" /></g><path
       d="m 176.3,147.45 39.14,21.87 a 12.29,12.29 0 0 0 12,0 L 262,149.73 a 5.09,5.09 0 0 0 1.77,-6.81 l -6.83,-12.13 -29.45,16.57 a 12.29,12.29 0 0 1 -12,0 L 190,133.11 a 4.76,4.76 0 0 0 -6.59,1.83 z"
       fill="#e54e2b"
       id="path52" /></g></svg>
